<svg xmlns="http://www.w3.org/2000/svg" width="39.863" height="31.396" viewBox="0 0 39.863 31.396"><defs><style>.a{fill:#fff;}</style></defs><g transform="translate(-1428.137 -486.604)"><path class="a" d="M1452.75,518h-24.569c-.32-4.416,1.089-8.121,4.64-10.738a12.243,12.243,0,0,1,13.618-1.049c4.651,2.393,6.426,6.536,6.311,11.787"/><path class="a" d="M1440.44,486.6a7.631,7.631,0,0,1,7.415,7.852,7.43,7.43,0,1,1-14.831-.136,7.625,7.625,0,0,1,7.416-7.716"/><path class="a" d="M1468,503.4c-.04,0-.079,0-.119,0h-5.371c-.281,0-.349.068-.349.352v5.479h-2.543V503.76c0-.044,0-.088,0-.131a.238.238,0,0,0-.237-.234c-.044,0-.088,0-.131,0h-5.46v-2.541h5.476c.278,0,.355-.076.355-.352v-5.37c0-.039,0-.078,0-.117h2.549c0,.039,0,.078,0,.117v5.37c0,.278.074.352.351.352h5.369c.04,0,.079,0,.119,0Z"/></g></svg>