<svg xmlns="http://www.w3.org/2000/svg" width="23.217" height="23.21" viewBox="0 0 23.217 23.21"><defs><style>.a{fill:#2fc966;}</style></defs><path class="a" d="M973,779.319a11.609,11.609,0,1,1-11.57-11.61A11.617,11.617,0,0,1,973,779.319Zm-12.581,6.1c.128-.034.178-.131.238-.217.223-.323.445-.647.668-.969q2.991-4.316,5.988-8.628c.185-.266.206-.415-.1-.6a12.968,12.968,0,0,1-1.338-.929c-.315-.25-.469-.2-.7.127-1.651,2.418-3.33,4.816-4.983,7.231-.228.333-.377.363-.692.1-.874-.718-1.781-1.4-2.666-2.1-.212-.17-.342-.219-.529.045-.357.505-.746.988-1.139,1.466-.167.2-.137.311.065.467,1.648,1.274,3.287,2.559,4.929,3.84C960.247,785.319,960.34,785.369,960.419,785.42Z" transform="translate(-949.783 -767.709)"/></svg>