<svg xmlns="http://www.w3.org/2000/svg" width="17.922" height="25.565" viewBox="0 0 17.922 25.565"><defs><style>.a{fill:#fff;}</style></defs><path class="a" d="M565.293,613.459c0-1.7-.009-3.377,0-5.056a6.388,6.388,0,0,1,12.772-.254c.045,1.646.012,3.294.014,4.941v.354c.293.072.571.116.832.207a2.56,2.56,0,0,1,1.724,2.543c.01,2.9.015,5.789,0,8.684a2.567,2.567,0,0,1-2.711,2.685q-6.238,0-12.478,0a2.565,2.565,0,0,1-2.712-2.683q-.023-4.343,0-8.685C562.741,614.659,563.556,613.79,565.293,613.459Zm10.19.01c0-1.886.067-3.717-.018-5.542a3.806,3.806,0,0,0-7.556-.034c-.1,1.824-.028,3.657-.029,5.485,0,.026.034.052.063.091Zm-1.894,7.083a1.9,1.9,0,1,0-1.911,1.9A1.9,1.9,0,0,0,573.589,620.552Z" transform="translate(-562.723 -602)"/></svg>