<svg xmlns="http://www.w3.org/2000/svg" width="85.092" height="70.787" viewBox="0 0 85.092 70.787"><defs><style>.a{fill:#565656;}</style></defs><g transform="translate(-960.37 -628.7)"><path class="a" d="M1022.91,682.655c-1.267-.755-2.491-1.486-3.718-2.214L995.639,666.46c-1.522-.9-1.513-1.84.026-2.754l27.322-16.237c.275-.163.543-.338.864-.538a32.884,32.884,0,0,0-23.67-15.5,30.88,30.88,0,0,0-13.812,1.053,9.3,9.3,0,0,1-.923.279,1.214,1.214,0,0,1-1.566-.892,1.144,1.144,0,0,1,.931-1.453,54.024,54.024,0,0,1,5.372-1.281,35.449,35.449,0,0,1,36.265,17.37c.567.959.386,1.518-.678,2.151q-7.922,4.715-15.85,9.419c-3.9,2.315-7.794,4.629-11.767,6.988.327.214.585.4.856.558q12.758,7.575,25.516,15.147c.176.1.354.206.526.316.941.6,1.074,1.179.457,2.13a35.352,35.352,0,0,1-56.708,3.758,34.379,34.379,0,0,1-8.385-24.66,58.647,58.647,0,0,1,1.021-6.937,1.2,1.2,0,0,1,1.472-1.139c.736.168,1.072.811.852,1.726a32.754,32.754,0,0,0,.829,18.856,32.975,32.975,0,0,0,33.769,22.114,31.6,31.6,0,0,0,19.3-8.335c1.778-1.633,3.269-3.579,4.886-5.387A4.672,4.672,0,0,0,1022.91,682.655Z"/><path class="a" d="M1005.6,643.5a5.263,5.263,0,0,1-5.168,5.237,5.236,5.236,0,0,1,0-10.472A5.259,5.259,0,0,1,1005.6,643.5Zm-7.961.008a2.775,2.775,0,1,0,2.788-2.782A2.76,2.76,0,0,0,997.636,643.512Z"/><path class="a" d="M1020.693,665.279a4.463,4.463,0,0,1-4.509,4.423,4.481,4.481,0,0,1,.116-8.961A4.464,4.464,0,0,1,1020.693,665.279Zm-4.446,1.973a2.03,2.03,0,1,0-2.055-2.046A2.024,2.024,0,0,0,1016.247,667.252Z"/><path class="a" d="M1024.157,665.189a4.5,4.5,0,0,1,4.495-4.449,4.482,4.482,0,1,1-.064,8.963A4.5,4.5,0,0,1,1024.157,665.189Zm4.512,2.067a2.032,2.032,0,0,0-.048-4.063,2.032,2.032,0,1,0,.048,4.063Z"/><path class="a" d="M1045.462,665.238a4.472,4.472,0,1,1-4.445-4.5A4.5,4.5,0,0,1,1045.462,665.238Zm-4.509,2.018a2.034,2.034,0,1,0,.044-4.068,2.034,2.034,0,0,0-.044,4.068Z"/><path class="a" d="M972.6,637.728a4.581,4.581,0,0,1,.684-1.005c.911-.728,1.853-1.42,2.813-2.084a1.212,1.212,0,1,1,1.437,1.94c-.928.708-1.851,1.431-2.84,2.045a1.631,1.631,0,0,1-1.283.1C973.084,638.592,972.894,638.108,972.6,637.728Z"/><path class="a" d="M966.4,648.108c-1.122-.016-1.736-.864-1.3-1.644a34.463,34.463,0,0,1,2.137-3.313,1.179,1.179,0,0,1,1.946,1.312q-.995,1.652-2.1,3.233C966.905,647.944,966.517,648.041,966.4,648.108Z"/></g></svg>