<svg xmlns="http://www.w3.org/2000/svg" width="18.264" height="26.059" viewBox="0 0 18.264 26.059"><defs><style>.a{fill:#fff;}</style></defs><path class="a" d="M1041.942,613.507c0-1.721-.008-3.432,0-5.143a6.514,6.514,0,0,1,13.018-.371c.025.537,0,1.075,0,1.638h-2.618c0-.492.024-.979,0-1.463a3.9,3.9,0,0,0-6.4-2.8,3.185,3.185,0,0,0-1.306,2.283c-.083,1.941-.025,3.889-.025,5.893h.541q4.807,0,9.615,0a2.589,2.589,0,0,1,2.547,1.521,3.141,3.141,0,0,1,.261,1.277c.022,2.917.019,5.834.008,8.75a2.629,2.629,0,0,1-2.806,2.8q-6.309,0-12.618,0a2.636,2.636,0,0,1-2.826-2.829q-.012-4.324,0-8.649a2.638,2.638,0,0,1,2.391-2.852C1041.785,613.545,1041.848,613.528,1041.942,613.507Zm8.455,7.248a1.941,1.941,0,1,0-1.961,1.92A1.939,1.939,0,0,0,1050.4,620.755Z" transform="translate(-1039.326 -601.83)"/></svg>