<svg xmlns="http://www.w3.org/2000/svg" width="15.9" height="15.899" viewBox="0 0 15.9 15.899"><defs><style>.a{fill:#fff;fill-rule:evenodd;}</style></defs><path class="a" d="M1027.2,461.264h-13.23a1.338,1.338,0,0,0-1.335,1.334v13.23a1.338,1.338,0,0,0,1.335,1.335h6.459v-6.715h-1.371v-2.742h1.36v-1.24a2.677,2.677,0,0,1,2.887-2.876l2.119.009v2.351h-1.538a.58.58,0,0,0-.607.658v1.1h2.179l0,2.742h-2.289v6.715h4.027a1.338,1.338,0,0,0,1.335-1.335V462.6A1.338,1.338,0,0,0,1027.2,461.264Z" transform="translate(-1012.633 -461.264)"/></svg>