<svg xmlns="http://www.w3.org/2000/svg" width="30.524" height="30.523" viewBox="0 0 30.524 30.523"><defs><style>.a{fill:#dba83f;}</style></defs><g transform="translate(-1719.476 -224.938)"><path class="a" d="M1739.828,229.964c0-1.293-.025-2.58.017-3.865a1.527,1.527,0,0,1,.379-.936c.376-.387.9-.258,1.4.255q2.629,2.72,5.253,5.446,1.344,1.4,2.686,2.79a1,1,0,0,1,.014,1.65q-3.965,4.122-7.935,8.239a1.04,1.04,0,0,1-1.2.406c-.539-.212-.617-.66-.612-1.17.012-1.249,0-2.5,0-3.81a12.606,12.606,0,0,0-3.863.236,10.306,10.306,0,0,0-6.887,5.245c-.087.156-.146.381-.28.445-.318.15-.716.37-1,.286a1.116,1.116,0,0,1-.661-.781c-.366-5.222,1.279-9.538,5.814-12.474a11.651,11.651,0,0,1,6.129-1.868c.179-.005.358-.011.536-.021A1.329,1.329,0,0,0,1739.828,229.964Z"/><path class="a" d="M1734.7,255.46q-5.6,0-11.2,0a3.818,3.818,0,0,1-4.025-4.042q0-8.667,0-17.333a3.8,3.8,0,0,1,4.024-4.036c1.152-.005,2.3-.008,3.455,0a1.274,1.274,0,1,1,0,2.53c-1.171.007-2.343,0-3.515,0a1.28,1.28,0,0,0-1.42,1.4q-.013,8.755,0,17.512a1.3,1.3,0,0,0,1.454,1.43q11.261.009,22.521,0c.988,0,1.459-.511,1.461-1.545q.008-4.706,0-9.412c0-.2-.006-.4.012-.6a1.246,1.246,0,0,1,1.214-1.161,1.279,1.279,0,0,1,1.294,1.085,3.663,3.663,0,0,1,.015.535q0,4.794,0,9.59a3.816,3.816,0,0,1-4.026,4.041Q1740.335,255.464,1734.7,255.46Z"/></g></svg>